<?xml version="1.0" encoding="UTF-8" standalone="no"?>
<!-- Created with Inkscape (http://www.inkscape.org/) -->

<svg
   xmlns:dc="http://purl.org/dc/elements/1.1/"
   xmlns:cc="http://creativecommons.org/ns#"
   xmlns:rdf="http://www.w3.org/1999/02/22-rdf-syntax-ns#"
   xmlns:svg="http://www.w3.org/2000/svg"
   xmlns="http://www.w3.org/2000/svg"
   xmlns:sodipodi="http://sodipodi.sourceforge.net/DTD/sodipodi-0.dtd"
   xmlns:inkscape="http://www.inkscape.org/namespaces/inkscape"
   width="134.67958mm"
   height="44.129452mm"
   viewBox="0 0 134.67958 44.129452"
   version="1.1"
   id="svg7500"
   inkscape:version="0.92.2 (5c3e80d, 2017-08-06)"
   sodipodi:docname="LogoKounouzTravel_v2.8.svg">
  <defs
     id="defs7494">
    <clipPath
       id="clipPath1028-3-6-3-7"
       clipPathUnits="userSpaceOnUse">
      <path
         inkscape:connector-curvature="0"
         id="path1026-0-0-7-6"
         d="m 354.904,290.387 h 265.08 V 42.0757 h -265.08 z" />
    </clipPath>
    <clipPath
       id="clipPath1060-1-9-3-2"
       clipPathUnits="userSpaceOnUse">
      <path
         inkscape:connector-curvature="0"
         id="path1058-4-9-3-5"
         d="M 373.01,223.87 H 577.671 V 77.3279 H 373.01 Z" />
    </clipPath>
    <clipPath
       id="clipPath1092-7-3-5-3"
       clipPathUnits="userSpaceOnUse">
      <path
         inkscape:connector-curvature="0"
         id="path1090-4-1-0-1"
         d="M 377.581,279.407 H 587.315 V 140.233 H 377.581 Z" />
    </clipPath>
    <clipPath
       id="clipPath1148-5-3-5-7"
       clipPathUnits="userSpaceOnUse">
      <path
         inkscape:connector-curvature="0"
         id="path1146-2-6-2-5"
         d="m 376.081,299.028 h 95.601 V 77.0018 h -95.601 z" />
    </clipPath>
  </defs>
  <sodipodi:namedview
     id="base"
     pagecolor="#ffffff"
     bordercolor="#666666"
     borderopacity="1.0"
     inkscape:pageopacity="0.0"
     inkscape:pageshadow="2"
     inkscape:zoom="0.35"
     inkscape:cx="-248.34439"
     inkscape:cy="26.427831"
     inkscape:document-units="mm"
     inkscape:current-layer="layer1"
     showgrid="false"
     fit-margin-top="0"
     fit-margin-left="0"
     fit-margin-right="0"
     fit-margin-bottom="0"
     inkscape:window-width="1366"
     inkscape:window-height="706"
     inkscape:window-x="-8"
     inkscape:window-y="-8"
     inkscape:window-maximized="1" />
  <metadata
     id="metadata7497">
    <rdf:RDF>
      <cc:Work
         rdf:about="">
        <dc:format>image/svg+xml</dc:format>
        <dc:type
           rdf:resource="http://purl.org/dc/dcmitype/StillImage" />
        <dc:title></dc:title>
      </cc:Work>
    </rdf:RDF>
  </metadata>
  <g
     inkscape:label="Calque 1"
     inkscape:groupmode="layer"
     id="layer1"
     transform="translate(-33.579809,-111.69625)">
    <g
       transform="matrix(5.3728938,0,0,5.3728938,1565.8907,-695.05675)"
       id="g4371">
      <g
         inkscape:export-ydpi="256"
         inkscape:export-xdpi="256"
         id="g11235"
         transform="matrix(1.0127936,0,0,1.0127936,3.075353,-2.179572)">
        <g
           id="g1018-7-8-7"
           transform="matrix(0.02724981,0,0,-0.02724981,-284.18658,156.04918)">
          <path
             d="m 0,0 c -8.352,17.661 -13.021,37.392 -13.021,58.187 0,75.363 61.314,136.669 136.677,136.669 32.73,0 62.805,-11.564 86.363,-30.817 30.689,-25.078 50.314,-63.22 50.314,-105.852 0,-75.363 -61.314,-136.677 -136.677,-136.677 C 69.131,-78.49 21.958,-46.395 0.043,-0.101 0.029,-0.064 0.014,-0.036 0,0 m 269.755,116.152 c -7.495,17.719 -18.225,33.631 -31.888,47.294 -13.671,13.663 -29.582,24.393 -47.301,31.889 -18.346,7.76 -37.835,11.692 -57.923,11.692 -20.081,0 -39.569,-3.932 -57.915,-11.692 C 57.002,187.839 41.09,177.109 27.427,163.446 13.763,149.783 3.034,133.871 -4.461,116.152 -12.221,97.799 -16.155,78.317 -16.155,58.229 c 0,-20.087 3.934,-39.576 11.694,-57.922 7.495,-17.718 18.224,-33.63 31.888,-47.294 13.663,-13.67 29.575,-24.4 47.301,-31.888 18.346,-7.76 37.834,-11.7 57.915,-11.7 20.088,0 39.577,3.94 57.923,11.7 17.719,7.488 33.63,18.218 47.301,31.888 13.663,13.664 24.393,29.576 31.888,47.294 7.76,18.346 11.693,37.835 11.693,57.922 0,20.088 -3.933,39.57 -11.693,57.923"
             style="fill:#eab331;fill-opacity:1;fill-rule:nonzero;stroke:none"
             id="path1020-7-6-3"
             inkscape:connector-curvature="0" />
        </g>
        <g
           transform="matrix(0.02724981,0,0,-0.02724981,-293.8565,159.49214)"
           id="g1022-4-5-5">
          <g
             id="g1024-4-1-6" />
          <g
             id="g1036-3-3-0">
            <g
               clip-path="url(#clipPath1028-3-6-3-7)"
               id="g1034-9-2-4"
               style="opacity:0.25">
              <g
                 transform="translate(619.9836,180.0588)"
                 id="g1032-6-2-3">
                <path
                   d="m 0,0 c 0,-76.205 -61.778,-137.983 -137.983,-137.983 -57.116,0 -106.123,34.701 -127.096,84.171 21.915,-46.293 69.088,-78.389 123.613,-78.389 75.362,0 136.676,61.314 136.676,136.677 0,42.632 -19.624,80.774 -50.313,105.852 C -21.637,85.157 0,45.109 0,0"
                   style="fill:#000000;fill-opacity:1;fill-rule:nonzero;stroke:none"
                   id="path1030-2-0-6"
                   inkscape:connector-curvature="0" />
              </g>
            </g>
          </g>
        </g>
        <g
           id="g1038-1-3-4"
           transform="matrix(0.02724981,0,0,-0.02724981,-279.47995,157.62281)">
          <path
             d="m 0,0 c 0.775,5.101 1.36,10.708 1.737,16.669 l 0.077,1.206 1.198,-0.156 c 4.822,-0.629 9.222,-0.935 13.45,-0.935 0.428,0 0.857,0.003 1.286,0.01 2.481,0.067 5.383,0.176 8.236,0.604 1.024,0.128 2.047,0.295 3.071,0.503 L 29.984,15.91 C 21.277,8.976 11.717,3.217 1.569,-1.206 l -1.877,-0.817 z"
             style="fill:#009cdf;fill-opacity:1;fill-rule:nonzero;stroke:none"
             id="path1040-5-2-9"
             inkscape:connector-curvature="0" />
        </g>
        <g
           id="g1042-5-7-0"
           transform="matrix(0.02724981,0,0,-0.02724981,-280.81696,157.94247)">
          <path
             d="m 0,0 c -1.278,0 -2.609,0.021 -4.071,0.062 l -2.23,0.061 1.369,1.762 c 7.717,9.927 15.478,21.684 23.07,34.948 l 0.462,0.808 0.882,-0.299 c 4.971,-1.688 10.004,-3.188 14.96,-4.459 5.436,-1.383 10.823,-2.463 16.007,-3.21 0.06,-0.007 0.107,-0.013 0.16,-0.024 L 51.584,29.46 51.521,28.469 C 51.118,22.106 50.483,16.12 49.633,10.678 L 49.536,10.054 48.954,9.81 C 33.428,3.301 16.958,0 0,0"
             style="fill:#25ade7;fill-opacity:1;fill-rule:nonzero;stroke:none"
             id="path1044-2-2-8"
             inkscape:connector-curvature="0" />
        </g>
        <g
           id="g1046-1-5-3"
           transform="matrix(0.02724981,0,0,-0.02724981,-280.98244,157.9385)">
          <path
             d="m 0,0 c -2.065,0.094 -4.16,0.246 -6.403,0.463 l -0.556,0.054 -0.295,0.474 c -6.204,9.987 -12.212,21.861 -17.859,35.291 l -0.21,0.5 0.258,0.477 c 0.914,1.686 1.798,3.45 2.705,5.388 1.81,3.886 3.443,7.943 4.991,12.403 l 0.441,1.27 1.176,-0.654 C -2.504,48.3 10.873,42.262 24.008,37.722 l 1.29,-0.447 -0.678,-1.183 C 16.858,22.541 8.891,10.542 0.94,0.43 L 0.581,-0.027 Z"
             style="fill:#4abeef;fill-opacity:1;fill-rule:nonzero;stroke:none"
             id="path1048-1-3-2"
             inkscape:connector-curvature="0" />
        </g>
        <g
           id="g1050-3-2-0"
           transform="matrix(0.02724981,0,0,-0.02724981,-281.21062,157.92027)">
          <path
             d="m 0,0 c -14.156,1.612 -27.838,5.57 -40.666,11.764 l 0.258,2.124 c 0.604,0.127 1.208,0.285 1.794,0.469 2.343,0.747 4.673,1.946 6.921,3.562 1.973,1.419 3.835,3.092 5.69,5.114 1.626,1.772 3.203,3.764 4.687,5.92 1.301,1.9 2.54,3.895 3.683,5.928 l 1.128,2.005 0.898,-2.117 C -10.316,22.294 -4.698,11.173 1.092,1.713 l 1.209,-1.976 z"
             style="fill:#009cdf;fill-opacity:1;fill-rule:nonzero;stroke:none"
             id="path1052-2-9-7"
             inkscape:connector-curvature="0" />
        </g>
        <g
           transform="matrix(0.02724981,0,0,-0.02724981,-293.8565,159.49214)"
           id="g1054-3-7-4">
          <g
             id="g1056-9-4-8" />
          <g
             id="g1068-9-9-2">
            <g
               clip-path="url(#clipPath1060-1-9-3-2)"
               id="g1066-0-0-3"
               style="opacity:0.25">
              <g
                 transform="translate(500.5471,191.9006)"
                 id="g1064-8-4-4">
                <path
                   d="m 0,0 c 54.76,-33.42 87.867,-79.004 73.946,-101.814 -13.921,-22.811 -69.599,-14.209 -124.359,19.21 -54.76,33.421 -87.867,79.005 -73.946,101.815 C -110.438,42.021 -54.76,33.421 0,0"
                   style="fill:#000000;fill-opacity:1;fill-rule:nonzero;stroke:none"
                   id="path1062-8-9-7"
                   inkscape:connector-curvature="0" />
              </g>
            </g>
          </g>
        </g>
        <g
           id="g1070-6-9-0"
           transform="matrix(0.02724981,0,0,-0.02724981,-279.38384,154.82155)">
          <path
             d="m 0,0 c -1.676,1.307 -3.532,2.708 -5.673,4.285 -2.851,2.104 -5.69,4.112 -8.44,5.973 l -1.379,0.931 1.374,0.938 c 8.379,5.721 16.232,11.812 23.341,18.105 l 1.833,-1.165 C 8.266,19.576 5.139,9.968 1.759,0.512 L 1.233,-0.961 Z"
             style="fill:#009cdf;fill-opacity:1;fill-rule:nonzero;stroke:none"
             id="path1072-8-0-6"
             inkscape:connector-curvature="0" />
        </g>
        <g
           id="g1074-8-5-9"
           transform="matrix(0.02724981,0,0,-0.02724981,-278.53243,155.63581)">
          <path
             d="m 0,0 c -0.399,0.511 -0.806,1.015 -1.221,1.51 -3.308,3.988 -7.01,7.979 -11.006,11.866 -5.377,5.276 -11.161,10.335 -17.688,15.469 l -0.64,0.503 0.275,0.766 c 3.792,10.591 7.22,21.187 10.189,31.492 l 0.089,0.309 0.238,0.216 c 3.015,2.735 5.949,5.552 8.717,8.372 3.899,3.991 7.53,8.116 10.793,12.259 1.215,1.545 2.399,3.123 3.518,4.69 L 3.687,88.044 4.4,87.905 c 12.277,-2.399 23.416,-5.443 33.11,-9.048 l 0.532,-0.198 0.159,-0.545 c 3.375,-11.546 5.087,-23.538 5.087,-35.645 0,-10.561 -1.305,-21.06 -3.878,-31.206 L 39.269,10.707 38.736,10.492 C 27.888,6.126 15.23,2.458 1.116,-0.411 L 0.431,-0.55 Z"
             style="fill:#25ade7;fill-opacity:1;fill-rule:nonzero;stroke:none"
             id="path1076-0-8-8"
             inkscape:connector-curvature="0" />
        </g>
        <g
           id="g1078-7-6-3"
           transform="matrix(0.02724981,0,0,-0.02724981,-280.48643,155.83497)">
          <path
             d="m 0,0 c -9.441,0 -18.86,0.325 -27.997,0.97 l -1.279,0.09 0.25,1.257 c 1.196,6.022 2.154,12.229 2.849,18.452 l 0.075,0.676 0.634,0.25 c 11.408,4.49 23.013,10.116 34.493,16.718 4.888,2.83 9.698,5.815 14.294,8.869 l 0.632,0.421 0.628,-0.427 c 3.2,-2.168 6.399,-4.442 9.506,-6.758 2.32,-1.739 4.453,-3.393 6.522,-5.06 l 0.633,-0.51 -0.583,-1.584 C 40.304,32.406 39.951,31.444 39.593,30.488 35.914,20.638 31.958,10.906 27.834,1.565 L 27.559,0.94 26.876,0.894 C 19.516,0.399 12.005,0.107 4.552,0.024 3.034,0.008 1.516,0 0,0"
             style="fill:#ff4300;fill-opacity:1;fill-rule:nonzero;stroke:none"
             id="path1080-7-8-2"
             inkscape:connector-curvature="0" />
        </g>
        <g
           id="g1082-4-7-1"
           transform="matrix(0.02724981,0,0,-0.02724981,-277.54697,153.49385)">
          <path
             d="m 0,0 c -9.183,3.345 -19.687,6.197 -31.22,8.476 l -1.689,0.335 0.978,1.417 c 1.792,2.596 3.334,5.058 4.714,7.528 1.467,2.702 2.645,5.009 3.605,7.444 1.086,2.591 1.918,5.277 2.484,8.006 0.463,2.113 0.675,4.247 0.633,6.357 l 2.032,0.704 C -9.583,28.506 -2.877,15.429 1.466,1.396 L 2.14,-0.78 Z"
             style="fill:#009cdf;fill-opacity:1;fill-rule:nonzero;stroke:none"
             id="path1084-2-4-0"
             inkscape:connector-curvature="0" />
        </g>
        <g
           transform="matrix(0.02724981,0,0,-0.02724981,-293.8565,159.49214)"
           id="g1086-2-4-2">
          <g
             id="g1088-8-0-5" />
          <g
             id="g1100-1-9-0">
            <g
               clip-path="url(#clipPath1092-7-3-5-3)"
               id="g1098-5-9-3"
               style="opacity:0.25">
              <g
                 transform="translate(459.5358,252.4368)"
                 id="g1096-5-2-9">
                <path
                   d="M 0,0 C 56.504,30.379 112.568,35.926 125.223,12.389 137.876,-11.148 102.329,-54.855 45.825,-85.234 -10.679,-115.613 -66.744,-121.159 -79.397,-97.623 -92.052,-74.086 -56.504,-30.379 0,0"
                   style="fill:#000000;fill-opacity:1;fill-rule:nonzero;stroke:none"
                   id="path1094-1-4-8"
                   inkscape:connector-curvature="0" />
              </g>
            </g>
          </g>
        </g>
        <g
           id="g1102-0-9-5"
           transform="matrix(0.02724981,0,0,-0.02724981,-278.58695,153.22787)">
          <path
             d="m 0,0 c -3.256,0.564 -6.539,1.078 -9.758,1.523 l -1.203,0.167 0.252,1.188 c 3.376,15.905 5.572,30.895 6.527,44.554 l 0.093,1.327 1.295,-0.306 c 1.102,-0.26 2.201,-0.568 3.358,-0.942 5.391,-1.75 9.586,-4.878 11.811,-8.809 C 15.15,33.656 14.637,28.003 13.72,24.146 13.126,21.62 12.291,19.159 11.239,16.834 10.218,14.418 8.915,12.078 7.66,9.913 5.851,6.866 3.702,3.764 1.084,0.417 L 0.667,-0.117 Z"
             style="fill:#ff3b72;fill-opacity:1;fill-rule:nonzero;stroke:none"
             id="path1104-9-7-8"
             inkscape:connector-curvature="0" />
        </g>
        <g
           id="g1106-9-4-0"
           transform="matrix(0.02724981,0,0,-0.02724981,-278.89611,153.18042)">
          <path
             d="m 0,0 c -16.016,2.166 -32.939,3.264 -50.3,3.264 -1.549,0 -3.098,-0.009 -4.653,-0.027 C -65.908,3.109 -76.767,2.548 -87.228,1.57 l -0.989,-0.092 -0.219,0.967 c -0.821,3.632 -1.718,7.161 -2.667,10.491 -0.556,1.946 -1.095,3.738 -1.648,5.476 l -0.279,0.877 0.802,0.45 c 9.08,5.101 18.091,9.581 26.785,13.318 10.189,4.358 20.388,7.898 30.317,10.521 5.314,1.387 10.589,2.478 15.682,3.243 5.537,0.823 10.47,1.222 15.083,1.222 0.265,0 0.529,-10e-4 0.794,-0.004 2.416,-0.062 5.199,-0.162 7.894,-0.562 0.861,-0.106 1.746,-0.247 2.601,-0.415 L 7.904,46.867 7.836,45.875 C 6.893,32.163 4.68,17.026 1.257,0.886 L 1.04,-0.141 Z"
             style="fill:#e12760;fill-opacity:1;fill-rule:nonzero;stroke:none"
             id="path1108-5-1-9"
             inkscape:connector-curvature="0" />
        </g>
        <g
           id="g1110-1-4-4"
           transform="matrix(0.02724981,0,0,-0.02724981,-281.45823,152.57388)">
          <path
             d="m 0,0 -0.144,0.443 0.212,0.416 c 10.999,21.614 22.987,40.76 34.67,55.371 l 0.382,0.478 0.609,-0.059 C 60.427,54.288 83.744,44.775 103.159,29.14 l -0.921,-1.991 c -1.184,0.227 -2.389,0.404 -3.583,0.529 -2.781,0.354 -5.589,0.41 -8.213,0.416 C 85.556,28.047 80.259,27.535 74.264,26.526 69.085,25.636 63.773,24.42 58.478,22.915 48.64,20.179 38.707,16.58 28.104,11.912 19.506,8.163 10.673,3.731 1.843,-1.263 L 0.648,-1.938 c 0,0 -0.605,1.804 -0.648,1.938"
             style="fill:#009cdf;fill-opacity:1;fill-rule:nonzero;stroke:none"
             id="path1112-3-9-3"
             inkscape:connector-curvature="0" />
        </g>
        <g
           id="g1114-8-7-5"
           transform="matrix(0.02724981,0,0,-0.02724981,-281.17728,155.02838)">
          <path
             d="m 0,0 c 0.55,7.215 0.79,14.773 0.713,22.465 -0.072,4.739 -0.277,9.699 -0.608,14.738 -0.137,1.849 -0.309,3.793 -0.509,5.77 l -0.189,1.859 1.734,-0.695 c 0.928,-0.373 1.848,-0.762 2.769,-1.157 9.373,-4.03 19.028,-8.875 28.698,-14.398 3.403,-1.988 6.708,-4.001 9.835,-5.988 L 43.946,21.64 42.442,20.686 C 38.885,18.43 35.165,16.178 31.385,13.991 21.922,8.532 12.375,3.659 3.01,-0.494 2.531,-0.706 2.051,-0.92 1.572,-1.125 l -1.714,-0.733 z"
             style="fill:#e12760;fill-opacity:1;fill-rule:nonzero;stroke:none"
             id="path1116-4-0-9"
             inkscape:connector-curvature="0" />
        </g>
        <g
           id="g1118-9-8-4"
           transform="matrix(0.02724981,0,0,-0.02724981,-279.96897,154.41026)">
          <path
             d="m 0,0 c -3.56,2.27 -7.332,4.556 -11.209,6.794 -9.72,5.605 -19.393,10.513 -28.749,14.585 -1.584,0.698 -3.061,1.331 -4.519,1.937 l -0.618,0.256 -0.072,0.664 c -0.169,1.55 -0.365,3.168 -0.6,4.951 -0.783,5.734 -1.782,11.409 -2.968,16.863 l -0.271,1.247 1.271,0.118 c 10.45,0.973 21.265,1.527 32.143,1.648 1.601,0.019 3.201,0.028 4.797,0.028 21.327,0 41.776,-1.635 60.779,-4.86 L 51.89,43.908 50.673,42.405 C 50.156,41.768 49.639,41.136 49.114,40.513 45.832,36.612 42.173,32.724 38.24,28.955 31.065,22.008 23.062,15.36 13.78,8.637 9.708,5.675 5.483,2.771 1.223,0.005 l -0.61,-0.396 z"
             style="fill:#c4144e;fill-opacity:1;fill-rule:nonzero;stroke:none"
             id="path1120-0-7-7"
             inkscape:connector-curvature="0" />
        </g>
        <g
           id="g1122-4-7-5"
           transform="matrix(0.02724981,0,0,-0.02724981,-278.99647,157.0623)">
          <path
             d="m 0,0 c -4.471,0.056 -9.292,0.532 -14.742,1.455 l -0.978,0.166 0.037,0.991 c 0.216,5.717 0.249,11.809 0.099,18.108 -0.217,8.872 -0.72,18.469 -1.346,25.672 l -0.097,1.115 1.114,0.107 c 10.368,1.007 20.471,2.435 30.028,4.244 l 0.679,0.129 0.424,-0.547 c 3.261,-4.201 5.892,-8.11 8.044,-11.949 1.147,-2.106 2.447,-4.555 3.45,-7.12 0.996,-2.351 1.777,-4.86 2.307,-7.425 C 30.197,19.433 29.583,14.24 27.29,10.332 24.304,5.397 19.153,3.013 15.357,1.879 12.913,1.137 10.367,0.628 7.792,0.368 5.376,0.063 2.933,0 0.014,0 Z"
             style="fill:#ffb000;fill-opacity:1;fill-rule:nonzero;stroke:none"
             id="path1124-6-4-5"
             inkscape:connector-curvature="0" />
        </g>
        <g
           id="g1126-7-5-7"
           transform="matrix(0.02724981,0,0,-0.02724981,-279.73481,155.76418)">
          <path
             d="m 0,0 c 3.977,9.054 7.812,18.516 11.4,28.125 0.391,1.051 0.782,2.111 1.165,3.164 l 0.544,1.491 1.232,-1.001 C 20.12,27.078 25.639,22.087 30.745,16.942 34.495,13.155 38.018,9.206 41.218,5.202 L 42.394,3.731 40.543,3.385 C 28.173,1.071 14.908,-0.6 1.115,-1.582 l -1.868,-0.134 z"
             style="fill:#ff7a00;fill-opacity:1;fill-rule:nonzero;stroke:none"
             id="path1128-3-8-2"
             inkscape:connector-curvature="0" />
        </g>
        <g
           id="g1130-9-8-9"
           transform="matrix(0.02724981,0,0,-0.02724981,-280.24711,156.78688)">
          <path
             d="m 0,0 c -4.835,1.789 -9.888,3.86 -15.021,6.156 -8.656,3.842 -17.493,8.312 -26.261,13.281 l -0.572,0.326 v 0.819 l 0.044,0.162 c 0.727,2.497 1.418,5.078 2.052,7.67 0.6,2.45 1.149,4.903 1.633,7.289 l 0.198,0.973 0.991,-0.071 c 9.079,-0.648 18.499,-0.976 27.998,-0.976 1.57,0 3.132,0.007 4.701,0.029 7.249,0.083 14.473,0.356 21.474,0.812 l 1.868,0.121 -0.762,-1.709 C 12.953,22.789 7.247,11.228 1.384,0.518 L 0.915,-0.338 Z"
             style="fill:#ff5e00;fill-opacity:1;fill-rule:nonzero;stroke:none"
             id="path1132-7-5-2"
             inkscape:connector-curvature="0" />
        </g>
        <g
           id="g1134-7-2-3"
           transform="matrix(0.02724981,0,0,-0.02724981,-279.4404,157.01517)">
          <path
             d="m 0,0 c -4.783,0.865 -9.631,2.015 -14.823,3.515 -4.279,1.222 -8.736,2.671 -13.244,4.303 l -1.239,0.45 0.632,1.156 c 5.94,10.858 11.681,22.517 17.066,34.655 v 0.818 l 1.055,0.08 c 3.061,0.203 6.222,0.458 9.397,0.757 l 1.134,0.108 0.098,-1.136 C 0.696,37.522 1.196,27.915 1.414,19.007 1.563,12.859 1.536,6.825 1.331,1.071 L 1.285,-0.232 Z"
             style="fill:#ff9500;fill-opacity:1;fill-rule:nonzero;stroke:none"
             id="path1136-6-8-0"
             inkscape:connector-curvature="0" />
        </g>
        <g
           id="g1138-4-2-5"
           transform="matrix(0.02724981,0,0,-0.02724981,-281.47797,152.5181)">
          <path
             d="m 0,0 c -0.323,0.884 -0.652,1.768 -0.989,2.652 -1.989,5.175 -3.96,9.589 -6.025,13.492 -2.737,5.139 -5.296,9.093 -8.05,12.44 -3.847,4.619 -7.477,7.657 -11.419,9.557 -1.717,0.829 -3.511,1.405 -5.334,1.713 l -0.316,2.126 c 17.629,8.76 36.601,13.202 56.39,13.202 3.435,0 6.887,-0.139 10.257,-0.412 L 36.621,54.6 35.31,52.942 C 24.136,38.818 12.641,20.466 2.067,-0.13 L 0.885,-2.432 Z"
             style="fill:#25ade7;fill-opacity:1;fill-rule:nonzero;stroke:none"
             id="path1140-5-8-2"
             inkscape:connector-curvature="0" />
        </g>
        <g
           transform="matrix(0.02724981,0,0,-0.02724981,-293.8565,159.49214)"
           id="g1142-1-6-5">
          <g
             id="g1144-7-4-8" />
          <g
             id="g1156-0-6-0">
            <g
               clip-path="url(#clipPath1148-5-3-5-7)"
               id="g1154-1-1-0"
               style="opacity:0.25">
              <g
                 transform="translate(376.1725,189.2698)"
                 id="g1152-4-3-2">
                <path
                   d="M 0,0 C 1.613,61.308 24.28,110.444 50.629,109.751 76.979,109.059 97.031,58.797 95.418,-2.51 93.806,-63.816 71.138,-112.954 44.789,-112.261 18.439,-111.567 -1.613,-61.307 0,0"
                   style="fill:#000000;fill-opacity:1;fill-rule:nonzero;stroke:none"
                   id="path1150-7-6-2"
                   inkscape:connector-curvature="0" />
              </g>
            </g>
          </g>
        </g>
        <g
           id="g1158-8-5-9"
           transform="matrix(0.02724981,0,0,-0.02724981,-281.5604,156.14717)">
          <path
             d="m 0,0 c -7.659,4.602 -15.021,9.468 -21.884,14.464 -2.29,1.658 -4.566,3.364 -6.765,5.069 l -2.202,1.708 2.768,0.309 c 0.152,0.017 0.294,0.039 0.441,0.061 l 0.115,0.017 c 5.213,0.756 10.604,1.839 16.029,3.219 5.373,1.384 10.868,3.046 16.33,4.937 L 6.513,30.367 6.326,28.598 C 5.453,20.337 4.335,13.007 2.91,6.187 2.441,3.973 2.063,2.283 1.681,0.704 L 1.319,-0.792 Z"
             style="fill:#ff6000;fill-opacity:1;fill-rule:nonzero;stroke:none"
             id="path1160-9-6-6"
             inkscape:connector-curvature="0" />
        </g>
        <g
           id="g1162-8-5-6"
           transform="matrix(0.02724981,0,0,-0.02724981,-282.87005,157.23848)">
          <path
             d="m 0,0 c -2.12,2.369 -4.116,5.132 -6.103,8.446 -2.242,3.764 -4.31,7.996 -6.325,12.945 -3.298,8.187 -5.99,17.278 -8.235,27.794 -1.215,5.807 -2.237,11.918 -3.037,18.164 l -0.39,3.042 2.271,-2.062 c 0.604,-0.549 1.258,-1.077 1.943,-1.57 2.329,-1.653 4.888,-2.929 7.601,-3.789 2.684,-0.886 5.426,-1.509 8.165,-1.855 2.833,-0.425 5.648,-0.53 8.291,-0.602 0.349,-0.004 0.715,-0.007 1.079,-0.007 1.303,0 2.65,0.03 4.004,0.09 l 0.445,0.019 0.347,-0.29 c 0.157,-0.135 0.307,-0.27 0.457,-0.404 L 11.012,59.472 10.88,58.798 C 5.825,37.488 2.827,17.94 1.972,0.697 L 1.835,-2.052 Z"
             style="fill:#bb1ea3;fill-opacity:1;fill-rule:nonzero;stroke:none"
             id="path1164-6-8-1"
             inkscape:connector-curvature="0" />
        </g>
        <g
           id="g1166-2-6-8"
           transform="matrix(0.02724981,0,0,-0.02724981,-281.42509,153.67822)">
          <path
             d="m 0,0 c -5.698,2.121 -11.373,3.973 -16.865,5.502 -5.341,1.512 -10.649,2.722 -15.781,3.601 -1.671,0.279 -3.132,0.498 -4.461,0.67 l -2.565,0.334 1.986,1.656 c 3.01,2.508 6.197,5.023 9.475,7.475 6.969,5.199 14.545,10.279 22.519,15.097 l 1.302,0.786 0.378,-1.474 c 0.311,-1.214 0.607,-2.42 0.888,-3.635 2.012,-8.6 3.516,-17.887 4.598,-28.392 l 0.221,-2.25 z"
             style="fill:#78a936;fill-opacity:1;fill-rule:nonzero;stroke:none"
             id="path1168-9-7-3"
             inkscape:connector-curvature="0" />
        </g>
        <g
           id="g1170-9-5-9"
           transform="matrix(0.02724981,0,0,-0.02724981,-278.11551,156.5545)">
          <path
             d="m 0,0 c 0.042,2.333 -0.208,4.636 -0.745,6.841 -0.616,2.69 -1.493,5.327 -2.61,7.85 -1.082,2.582 -2.436,5.042 -3.738,7.32 -1.987,3.365 -4.319,6.749 -7.121,10.332 l -1.123,1.436 1.785,0.367 c 13.288,2.737 25.287,6.193 35.663,10.27 l 2.091,0.821 -0.586,-2.169 C 19.323,27.182 12.06,12.454 2.029,-0.706 Z"
             style="fill:#4abeef;fill-opacity:1;fill-rule:nonzero;stroke:none"
             id="path1172-7-2-8"
             inkscape:connector-curvature="0" />
        </g>
        <g
           id="g1174-1-3-6"
           transform="matrix(0.02724981,0,0,-0.02724981,-282.43646,157.47222)">
          <path
             d="M 0,0 C -0.402,0 -0.809,0.018 -1.207,0.051 -3.33,0.214 -5.49,0.839 -7.618,1.907 l -0.164,0.082 -0.035,0.035 c -1.157,0.719 -2.373,1.509 -3.712,2.414 l -0.124,0.061 -0.097,0.102 c -0.475,0.374 -0.957,0.784 -1.509,1.286 -0.365,0.332 -0.727,0.672 -1.074,1.027 l -0.341,0.35 0.021,0.486 c 0.715,17.181 3.758,37.566 8.8,58.955 l 0.426,1.807 1.41,-1.207 C 6.457,58.337 18.287,49.919 31.146,42.285 l 0.752,-0.446 -0.244,-0.84 c -1.436,-4.961 -2.991,-9.43 -4.752,-13.662 -2,-4.83 -4.126,-8.966 -6.499,-12.643 C 19.083,12.621 17.676,10.716 16.224,9.037 14.662,7.2 12.983,5.586 11.243,4.245 7.672,1.469 3.783,0 0,0"
             style="fill:#bf55ae;fill-opacity:1;fill-rule:nonzero;stroke:none"
             id="path1176-8-5-2"
             inkscape:connector-curvature="0" />
        </g>
        <g
           id="g1178-9-7-0"
           transform="matrix(0.02724981,0,0,-0.02724981,-282.19187,155.38394)">
          <path
             d="m 0,0 c -1.547,6.068 -3.457,14.224 -4.983,21.283 -3.519,16.251 -6.218,32.422 -8.022,48.061 l -0.158,1.378 1.381,-0.122 c 2.191,-0.194 4.468,-0.468 6.962,-0.837 5.063,-0.752 10.336,-1.841 15.674,-3.236 6.116,-1.614 12.324,-3.569 18.453,-5.812 l 0.674,-0.246 0.063,-0.716 c 0.262,-2.992 0.487,-6.226 0.688,-9.886 0.284,-5.138 0.433,-9.85 0.455,-14.405 C 31.276,26.734 30.976,17.84 30.294,9.03 L 30.24,8.326 29.583,8.067 C 23.126,5.515 16.676,3.313 10.412,1.521 7.256,0.604 4.288,-0.163 1.343,-0.824 l -1.072,-0.24 z"
             style="fill:#daa425;fill-opacity:1;fill-rule:nonzero;stroke:none"
             id="path1180-7-9-9"
             inkscape:connector-curvature="0" />
        </g>
        <g
           id="g1182-5-5-6"
           transform="matrix(0.02724981,0,0,-0.02724981,-283.17405,157.01482)">
          <path
             d="m 0,0 c -16.735,15.566 -28.984,35.292 -35.424,57.042 l -0.659,2.226 2.159,-0.854 c 6.207,-2.457 13.106,-4.827 20.504,-7.046 l -0.207,-0.69 1.046,-0.083 c 0.493,-3.347 1.056,-6.678 1.672,-9.901 2.054,-10.711 4.583,-19.955 7.732,-28.259 1.591,-4.165 3.21,-7.79 4.947,-11.08 z"
             style="fill:#25ade7;fill-opacity:1;fill-rule:nonzero;stroke:none"
             id="path1184-7-7-7"
             inkscape:connector-curvature="0" />
        </g>
        <g
           id="g1186-8-5-1"
           transform="matrix(0.02724981,0,0,-0.02724981,-282.53172,155.46137)">
          <path
             d="m 0,0 c -3.699,3.097 -7.292,6.327 -10.678,9.603 -3.923,3.758 -7.578,7.644 -10.863,11.546 -3.834,4.582 -6.855,8.759 -9.241,12.773 -0.463,0.804 -0.911,1.6 -1.351,2.397 l -0.293,0.531 0.279,0.537 c 0.201,0.388 0.41,0.769 0.619,1.15 2.383,4.246 5.325,8.545 9.018,13.186 3.18,4.005 6.761,8.028 10.645,11.96 3.259,3.28 6.673,6.488 10.15,9.536 l 1.624,1.423 0.244,-2.146 C 1.93,56.898 4.629,40.673 8.176,24.272 9.688,17.282 11.59,9.157 13.14,3.067 L 13.43,1.932 12.284,1.684 C 10.669,1.334 9.041,1.012 7.443,0.727 4.973,0.296 2.821,-0.024 0.858,-0.255 L 0.374,-0.312 Z"
             style="fill:#eab331;fill-opacity:1;fill-rule:nonzero;stroke:none"
             id="path1188-9-6-6"
             inkscape:connector-curvature="0" />
        </g>
        <g
           id="g1190-2-3-1"
           transform="matrix(0.02724981,0,0,-0.02724981,-283.47436,154.33349)">
          <path
             d="m 0,0 c -0.944,2.177 -1.698,4.454 -2.241,6.77 -0.564,2.385 -0.8,4.706 -0.7,6.896 l 0.007,0.115 c 0.017,0.346 0.041,0.674 0.073,0.994 l 0.013,0.097 c 0.253,2.397 0.909,4.547 1.952,6.446 2.248,3.949 6.439,7.076 11.81,8.821 2.492,0.823 5.054,1.402 7.61,1.718 2.652,0.404 5.44,0.504 7.842,0.567 0.286,0.004 0.555,0.006 0.823,0.006 0.381,0 0.763,-0.004 1.146,-0.013 l 2.88,-0.066 -2.156,-1.911 C 26.457,28.136 23.933,25.788 21.557,23.463 17.563,19.578 13.856,15.584 10.535,11.588 7.103,7.43 4.31,3.591 1.998,-0.146 L 0.86,-1.984 Z"
             style="fill:#25ade7;fill-opacity:1;fill-rule:nonzero;stroke:none"
             id="path1192-7-8-7"
             inkscape:connector-curvature="0" />
        </g>
        <g
           id="g1194-3-4-8"
           transform="matrix(0.02724981,0,0,-0.02724981,-283.56241,155.62801)">
          <path
             d="m 0,0 c -7.677,2.319 -14.76,4.782 -21.053,7.32 l -0.708,0.285 v 0.617 c -3.06,11.005 -4.612,22.43 -4.612,33.961 0,11.392 1.515,22.689 4.501,33.578 l 0.151,0.548 0.53,0.206 c 6.554,2.552 14.045,4.949 21.663,6.928 L 2.145,83.878 1.873,82.172 C 1.477,79.682 1.151,77.455 0.875,75.366 0.705,74.081 0.542,72.79 0.387,71.506 v -0.29 L 0.182,70.915 c -0.14,-0.198 -0.265,-0.398 -0.385,-0.604 -1.419,-2.414 -2.318,-5.26 -2.603,-8.236 -0.271,-2.844 -0.1,-5.695 0.507,-8.475 0.571,-2.755 1.402,-5.439 2.47,-7.989 0.45,-1.144 0.959,-2.294 1.564,-3.536 L 1.978,41.578 1.734,41.082 C 1.31,40.22 0.934,39.397 0.584,38.57 c -1.126,-2.512 -2.007,-5.152 -2.629,-7.869 -0.667,-2.742 -0.898,-5.562 -0.69,-8.398 0.225,-2.981 1.062,-5.84 2.421,-8.265 l 0.061,-0.104 c 0.019,-0.035 0.038,-0.07 0.06,-0.103 l 0.171,-0.244 0.027,-0.296 C 0.385,9.292 0.87,5.238 1.446,1.243 l 0.253,-1.757 z"
             style="fill:#009cdf;fill-opacity:1;fill-rule:nonzero;stroke:none"
             id="path1196-6-7-7"
             inkscape:connector-curvature="0" />
        </g>
        <g
           id="g1198-6-5-5"
           transform="matrix(0.02724981,0,0,-0.02724981,-284.1437,153.51176)">
          <path
             d="M 0,0 C 6.67,22.932 19.697,43.511 37.675,59.513 L 39.409,58.11 C 38.686,56.835 37.966,55.465 37.21,53.922 36.209,51.87 35.247,49.681 34.269,47.231 33.282,44.741 32.385,42.26 31.714,40.376 28.752,31.884 26.398,22.643 24.52,12.132 24.201,10.385 23.829,8.314 23.483,6.187 L 23.364,5.457 22.647,5.274 C 15.255,3.384 7.938,1.087 1.488,-1.371 l -2.122,-0.81 z"
             style="fill:#4abeef;fill-opacity:1;fill-rule:nonzero;stroke:none"
             id="path1200-4-9-5"
             inkscape:connector-curvature="0" />
        </g>
        <g
           id="g1202-6-9-5"
           transform="matrix(0.02724981,0,0,-0.02724981,-283.51589,153.56179)">
          <path
             d="m 0,0 c 0.585,4.779 1.298,9.442 2.121,13.86 2.061,10.481 4.562,19.634 7.647,27.993 1.818,4.918 3.719,9.234 5.811,13.195 2.508,4.735 5.093,8.598 7.903,11.808 3.25,3.728 6.682,6.317 10.198,7.693 l 1.758,0.688 -0.224,-1.875 C 33,54.841 33.191,31.999 35.766,7.305 L 35.909,5.94 34.542,6.062 C 32.327,6.256 30.094,6.366 27.909,6.389 25.455,6.375 22.58,6.33 19.744,5.968 16.984,5.677 14.26,5.118 11.621,4.306 8.909,3.512 6.354,2.299 4.013,0.7 3.212,0.153 2.516,-0.394 1.886,-0.972 l -2.258,-2.066 z"
             style="fill:#78a936;fill-opacity:1;fill-rule:nonzero;stroke:none"
             id="path1204-6-3-5"
             inkscape:connector-curvature="0" />
        </g>
        <g
           id="g1206-3-8-4"
           transform="matrix(0.02724981,0,0,-0.02724981,-282.79534,155.48559)">
          <path
             d="m 0,0 c -2.6,0.019 -4.574,0.128 -6.401,0.355 -2.51,0.253 -5.056,0.762 -7.541,1.509 -3.793,1.124 -8.946,3.5 -11.931,8.424 -2.299,3.917 -2.91,9.112 -1.729,14.643 0.458,2.195 1.113,4.393 1.945,6.528 l 0.851,2.186 1.179,-2.029 c 2.308,-3.972 5.065,-7.99 8.428,-12.282 3.274,-4.158 6.901,-8.283 10.779,-12.261 1.783,-1.814 3.487,-3.491 5.206,-5.123 l 2.075,-1.971 z"
             style="fill:#b01098;fill-opacity:1;fill-rule:nonzero;stroke:none"
             id="path1208-5-0-0"
             inkscape:connector-curvature="0" />
        </g>
        <g
           id="g1210-7-0-0"
           transform="matrix(0.02724981,0,0,-0.02724981,-282.56312,153.33908)">
          <path
             d="m 0,0 c -2.525,24.699 -2.652,47.521 -0.367,65.998 l 0.094,0.75 0.729,0.2 c 1.373,0.378 2.786,0.57 4.202,0.57 2.562,0 5.069,-0.609 7.45,-1.811 3.59,-1.783 7.027,-4.79 10.208,-8.935 2.694,-3.514 5.138,-7.584 7.262,-12.098 2.806,-5.972 5.187,-12.543 7.279,-20.09 l 0.231,-0.832 -0.743,-0.441 C 27.978,18.342 20.068,13.111 12.836,7.767 9.012,4.964 5.314,2.096 1.842,-0.758 L 0.214,-2.097 Z"
             style="fill:#8cc63f;fill-opacity:1;fill-rule:nonzero;stroke:none"
             id="path1212-4-8-4"
             inkscape:connector-curvature="0" />
        </g>
        <g
           id="g1214-8-7-8"
           transform="matrix(0.02724981,0,0,-0.02724981,-281.30056,156.00504)">
          <path
             d="m 0,0 c -1.185,-4.818 -2.542,-9.602 -4.141,-14.32 -1.585,-4.719 -3.398,-9.373 -5.518,-13.92 -2.127,-4.54 -4.54,-8.981 -7.424,-13.193 -1.449,-2.098 -3.034,-4.126 -4.79,-6.039 -1.749,-1.913 -3.69,-3.705 -5.861,-5.268 -2.17,-1.564 -4.59,-2.877 -7.239,-3.727 -1.327,-0.407 -2.698,-0.706 -4.097,-0.863 -1.392,-0.15 -2.805,-0.144 -4.198,-0.008 -2.791,0.272 -5.482,1.171 -7.874,2.442 -2.391,1.285 -4.518,2.913 -6.403,4.711 -3.769,3.613 -6.689,7.817 -9.173,12.164 -2.477,4.37 -4.505,8.917 -6.268,13.542 -3.512,9.259 -5.939,18.818 -7.781,28.448 -1.842,9.637 -3.091,19.36 -3.833,29.112 l 3.269,0.271 c 0.871,-9.63 2.206,-19.21 4.184,-28.655 2.013,-9.423 4.597,-18.739 8.173,-27.605 1.799,-4.419 3.834,-8.738 6.246,-12.785 2.414,-4.034 5.212,-7.831 8.545,-10.887 1.664,-1.521 3.477,-2.819 5.39,-3.805 1.92,-0.964 3.948,-1.577 6.004,-1.734 4.133,-0.35 8.209,1.277 11.664,3.955 1.735,1.342 3.341,2.912 4.812,4.64 1.478,1.72 2.841,3.576 4.083,5.525 2.513,3.897 4.605,8.117 6.403,12.472 3.627,8.715 6.133,17.946 8.096,27.269 0.963,4.668 1.763,9.38 2.419,14.113 0.322,2.363 0.622,4.74 0.872,7.118 0.271,2.369 0.514,4.747 0.713,7.131 0.807,9.53 1.171,19.11 1.079,28.683 -0.029,4.79 -0.186,9.572 -0.457,14.349 -0.265,4.775 -0.607,9.552 -1.114,14.305 -0.978,9.502 -2.406,18.968 -4.576,28.248 -2.17,9.259 -4.99,18.389 -8.988,26.884 -1.991,4.234 -4.361,8.274 -7.131,11.886 -2.763,3.605 -6.068,6.753 -9.815,8.616 -3.435,1.728 -7.225,2.149 -10.844,1.164 -0.314,-0.079 -0.629,-0.172 -0.935,-0.278 -0.236,-0.079 -0.471,-0.172 -0.707,-0.265 -3.634,-1.427 -6.939,-4.162 -9.752,-7.381 -3.005,-3.441 -5.539,-7.424 -7.752,-11.593 -2.206,-4.183 -4.091,-8.574 -5.754,-13.057 -3.312,-8.98 -5.732,-18.339 -7.588,-27.805 -1.764,-9.494 -2.87,-19.117 -3.548,-28.761 l -3.277,0.221 c 0.229,2.434 0.486,4.862 0.771,7.288 0.257,2.435 0.543,4.862 0.864,7.282 0.642,4.847 1.442,9.673 2.327,14.477 1.72,9.616 4.005,19.16 7.238,28.426 0.822,2.306 1.664,4.612 2.571,6.903 0.913,2.278 1.891,4.54 2.976,6.761 2.171,4.433 4.698,8.737 7.882,12.643 1.598,1.948 3.369,3.783 5.368,5.403 2.013,1.606 4.254,3.013 6.746,3.955 0.542,0.207 1.092,0.386 1.649,0.542 0.535,0.157 1.078,0.286 1.627,0.393 1.521,0.293 3.077,0.415 4.634,0.329 2.698,-0.172 5.346,-0.9 7.731,-2.056 2.398,-1.136 4.547,-2.663 6.496,-4.348 1.927,-1.706 3.712,-3.547 5.311,-5.511 3.219,-3.919 5.825,-8.231 8.174,-12.628 2.334,-4.412 4.297,-8.988 6.082,-13.62 1.777,-4.634 3.298,-9.352 4.661,-14.114 2.706,-9.53 4.662,-19.246 5.997,-29.04 C 4.868,83.508 5.39,78.59 5.753,73.664 6.082,68.73 6.296,63.798 6.368,58.858 6.567,39.12 4.704,19.289 0,0"
             style="fill:#ffffff;fill-opacity:1;fill-rule:nonzero;stroke:none"
             id="path1216-6-5-0"
             inkscape:connector-curvature="0" />
        </g>
        <g
           id="g1218-6-8-6"
           transform="matrix(0.02724981,0,0,-0.02724981,-280.3039,154.26155)">
          <path
             d="m 0,0 c -9.266,5.29 -18.791,10.13 -28.584,14.341 -9.798,4.192 -19.868,7.741 -30.133,10.451 -5.136,1.339 -10.328,2.431 -15.548,3.21 -5.218,0.771 -10.474,1.254 -15.684,1.191 -2.598,-0.066 -5.197,-0.172 -7.732,-0.554 -2.548,-0.32 -5.032,-0.889 -7.399,-1.669 -4.735,-1.54 -8.911,-4.321 -11.169,-8.296 -2.201,-4.009 -2.374,-8.953 -1.235,-13.742 0.563,-2.399 1.36,-4.786 2.405,-7.104 0.983,-2.336 2.234,-4.59 3.516,-6.818 2.634,-4.436 5.781,-8.614 9.136,-12.621 3.367,-4.002 6.983,-7.82 10.779,-11.462 3.782,-3.657 7.727,-7.156 11.786,-10.526 4.053,-3.378 8.279,-6.552 12.536,-9.677 8.542,-6.22 17.45,-11.952 26.608,-17.25 9.167,-5.282 18.585,-10.13 28.242,-14.418 4.835,-2.124 9.698,-4.197 14.649,-6.018 4.947,-1.83 9.951,-3.498 15.009,-4.943 5.052,-1.468 10.166,-2.69 15.316,-3.605 5.147,-0.902 10.339,-1.538 15.498,-1.601 2.571,0.004 5.148,0.048 7.662,0.364 2.53,0.254 4.996,0.757 7.355,1.469 4.716,1.408 8.912,4.03 11.283,7.941 2.314,3.942 2.634,8.949 1.6,13.82 -0.508,2.44 -1.256,4.875 -2.254,7.243 -0.937,2.385 -2.144,4.69 -3.386,6.973 -2.55,4.543 -5.596,8.854 -8.873,12.987 -3.285,4.13 -6.827,8.082 -10.555,11.86 -7.479,7.535 -15.587,14.481 -24.117,20.87 C 18.168,-11.208 9.214,-5.38 0,0 m 1.649,2.856 c 9.342,-5.397 18.428,-11.251 27.115,-17.672 8.707,-6.389 17.062,-13.293 24.806,-20.889 3.887,-3.781 7.602,-7.756 11.083,-11.952 3.473,-4.202 6.737,-8.614 9.541,-13.375 1.371,-2.399 2.709,-4.831 3.791,-7.419 1.137,-2.555 2.038,-5.251 2.68,-8.047 0.673,-2.784 0.928,-5.745 0.707,-8.727 -0.227,-2.978 -1.051,-6.012 -2.566,-8.715 -1.53,-2.696 -3.708,-4.984 -6.158,-6.734 -2.455,-1.746 -5.148,-3.076 -7.903,-3.952 -2.751,-0.911 -5.554,-1.545 -8.354,-1.903 -2.803,-0.422 -5.6,-0.543 -8.39,-0.617 -5.577,-0.078 -11.093,0.389 -16.539,1.165 -5.446,0.781 -10.824,1.88 -16.125,3.229 -21.199,5.458 -41.322,14.252 -60.172,25.096 -18.815,10.903 -36.493,23.932 -51.82,39.562 -3.818,3.917 -7.459,8.025 -10.859,12.351 -3.394,4.328 -6.557,8.872 -9.278,13.74 -1.331,2.453 -2.625,4.937 -3.661,7.575 -1.089,2.604 -1.942,5.349 -2.528,8.186 -0.62,2.824 -0.814,5.821 -0.529,8.82 0.291,2.997 1.183,6.027 2.752,8.699 1.584,2.664 3.799,4.895 6.265,6.581 2.472,1.683 5.163,2.942 7.91,3.75 2.743,0.843 5.529,1.411 8.31,1.704 2.782,0.357 5.557,0.415 8.32,0.426 5.525,-0.049 10.978,-0.669 16.353,-1.575 5.376,-0.917 10.675,-2.147 15.893,-3.623 10.45,-2.908 20.607,-6.691 30.494,-11.038 9.904,-4.313 19.517,-9.254 28.862,-14.646"
             style="fill:#ffffff;fill-opacity:1;fill-rule:nonzero;stroke:none"
             id="path1220-0-4-3"
             inkscape:connector-curvature="0" />
        </g>
        <g
           id="g1222-8-7-4"
           transform="matrix(0.02724981,0,0,-0.02724981,-281.44671,152.68423)">
          <path
             d="m 0,0 c -9.222,-5.385 -18.185,-11.218 -26.736,-17.599 -8.537,-6.393 -16.654,-13.345 -24.142,-20.884 -3.732,-3.78 -7.277,-7.734 -10.568,-11.866 -3.281,-4.135 -6.331,-8.448 -8.887,-12.993 -1.245,-2.283 -2.454,-4.589 -3.394,-6.975 -1.001,-2.368 -1.75,-4.805 -2.261,-7.246 -1.037,-4.872 -0.723,-9.879 1.591,-13.82 2.368,-3.909 6.568,-6.527 11.287,-7.933 2.361,-0.71 4.829,-1.212 7.36,-1.464 2.516,-0.316 5.096,-0.358 7.669,-0.361 5.162,0.068 10.359,0.705 15.51,1.61 5.154,0.918 10.273,2.141 15.329,3.611 5.063,1.448 10.071,3.117 15.022,4.95 4.956,1.823 9.823,3.897 14.662,6.024 9.667,4.292 19.093,9.145 28.269,14.431 9.167,5.305 18.083,11.041 26.633,17.267 4.262,3.127 8.491,6.305 12.548,9.685 4.063,3.373 8.012,6.875 11.798,10.535 3.801,3.644 7.42,7.465 10.792,11.469 3.359,4.009 6.509,8.191 9.148,12.628 1.285,2.23 2.538,4.485 3.523,6.821 1.048,2.318 1.847,4.707 2.412,7.106 1.142,4.791 0.975,9.736 -1.227,13.742 -2.255,3.975 -6.435,6.75 -11.173,8.288 -2.369,0.778 -4.854,1.347 -7.405,1.664 -2.537,0.38 -5.138,0.485 -7.738,0.55 C 84.809,29.299 79.548,28.813 74.327,28.039 69.102,27.256 63.906,26.162 58.766,24.82 48.493,22.104 38.415,18.552 28.608,14.354 18.807,10.14 9.274,5.294 0,0 m -1.66,2.875 c 9.353,5.397 18.975,10.345 28.888,14.664 9.895,4.353 20.06,8.143 30.519,11.059 5.222,1.478 10.527,2.712 15.907,3.632 5.38,0.911 10.838,1.534 16.368,1.587 2.767,-0.009 5.545,-0.066 8.331,-0.421 2.784,-0.29 5.574,-0.857 8.321,-1.697 2.752,-0.806 5.448,-2.067 7.925,-3.749 2.472,-1.687 4.693,-3.921 6.28,-6.59 1.572,-2.677 2.463,-5.714 2.752,-8.716 0.282,-3.004 0.085,-6.006 -0.538,-8.833 -0.591,-2.84 -1.446,-5.587 -2.539,-8.193 -1.04,-2.64 -2.337,-5.126 -3.671,-7.58 -2.728,-4.87 -5.897,-9.417 -9.298,-13.747 -3.406,-4.327 -7.052,-8.437 -10.876,-12.355 C 81.359,-53.7 63.663,-66.735 44.831,-77.649 25.963,-88.501 5.826,-97.31 -15.39,-102.784 c -5.305,-1.353 -10.688,-2.455 -16.138,-3.242 -5.451,-0.78 -10.972,-1.251 -16.554,-1.178 -2.793,0.071 -5.593,0.19 -8.4,0.61 -2.803,0.356 -5.61,0.99 -8.365,1.898 -2.76,0.874 -5.457,2.204 -7.918,3.95 -2.455,1.751 -4.64,4.042 -6.173,6.742 -1.518,2.709 -2.342,5.749 -2.567,8.733 -0.218,2.987 0.038,5.952 0.716,8.739 0.645,2.799 1.55,5.498 2.69,8.054 1.086,2.59 2.427,5.024 3.801,7.425 2.811,4.763 6.08,9.178 9.559,13.382 3.487,4.199 7.207,8.176 11.099,11.959 7.755,7.6 16.12,14.509 24.837,20.901 8.697,6.426 17.792,12.285 27.143,17.686"
             style="fill:#ffffff;fill-opacity:1;fill-rule:nonzero;stroke:none"
             id="path1224-7-1-7"
             inkscape:connector-curvature="0" />
        </g>
        <g
           id="g1226-8-9-7"
           transform="matrix(0.02724981,0,0,-0.02724981,-280.81696,151.03037)">
          <path
             d="m 0,0 c -69.473,0 -125.994,-56.521 -125.994,-125.993 0,-69.473 56.521,-125.993 125.994,-125.993 69.473,0 125.993,56.52 125.993,125.993 C 125.993,-56.521 69.473,0 0,0 m 0,-262.668 c -75.362,0 -136.674,61.313 -136.674,136.675 0,75.362 61.312,136.675 136.674,136.675 75.362,0 136.674,-61.313 136.674,-136.675 0,-75.362 -61.312,-136.675 -136.674,-136.675"
             style="fill:#ffffff;fill-opacity:1;fill-rule:nonzero;stroke:none"
             id="path1228-3-1-7"
             inkscape:connector-curvature="0" />
        </g>
        <g
           id="g1230-4-9-0"
           transform="matrix(0.02724981,0,0,-0.02724981,-282.85331,157.52267)">
          <path
             d="m 0,0 c -0.252,20.037 3.089,44.959 9.661,72.068 l 1.561,-0.38 C 4.682,44.708 1.357,19.926 1.607,0.02 Z"
             style="fill:#ffffff;fill-opacity:1;fill-rule:nonzero;stroke:none"
             id="path1232-6-7-8"
             inkscape:connector-curvature="0" />
        </g>
        <g
           id="g1234-5-9-5"
           transform="matrix(0.02724981,0,0,-0.02724981,-278.9832,153.70903)">
          <path
             d="m 0,0 c -4.147,-15.491 -9.237,-31.354 -15.127,-47.151 -16.925,-45.373 -38.877,-85.885 -60.614,-111.941 -0.342,-0.414 -0.693,-0.828 -1.042,-1.235 -0.314,0.449 -0.629,0.914 -0.935,1.378 -7.81,11.586 -15.591,26.691 -22.623,43.952 l 1.442,0.586 c 6.918,-16.99 14.556,-31.853 22.216,-43.304 21.523,25.928 43.26,66.118 60.05,111.128 5.875,15.748 10.951,31.56 15.084,47.001 z"
             style="fill:#ffffff;fill-opacity:1;fill-rule:nonzero;stroke:none"
             id="path1236-4-9-1"
             inkscape:connector-curvature="0" />
        </g>
        <g
           id="g1238-7-5-1"
           transform="matrix(0.02724981,0,0,-0.02724981,-278.85079,153.15235)">
          <path
             d="m 0,0 -1.571,0.335 c 3.768,17.71 6.074,34.194 6.855,48.993 L 6.889,49.243 C 6.103,34.36 3.786,17.793 0,0"
             style="fill:#ffffff;fill-opacity:1;fill-rule:nonzero;stroke:none"
             id="path1240-5-9-7"
             inkscape:connector-curvature="0" />
        </g>
        <g
           id="g1242-7-5-9"
           transform="matrix(0.02724981,0,0,-0.02724981,-281.46327,152.61734)">
          <path
             d="M 0,0 -1.436,0.721 C 11.278,26.069 25.119,47.796 38.59,63.552 l 1.222,-1.045 C 26.424,46.849 12.657,25.234 0,0"
             style="fill:#ffffff;fill-opacity:1;fill-rule:nonzero;stroke:none"
             id="path1244-8-8-8"
             inkscape:connector-curvature="0" />
        </g>
        <g
           id="g1246-5-2-4"
           transform="matrix(0.02724981,0,0,-0.02724981,-284.28246,153.62049)">
          <path
             d="M 0,0 -0.634,1.431 C 7.363,4.975 17.525,8.387 27.98,11.037 L 28.365,9.521 C 17.993,6.891 7.919,3.51 0,0"
             style="fill:#ffffff;fill-opacity:1;fill-rule:nonzero;stroke:none"
             id="path1248-7-2-2"
             inkscape:connector-curvature="0" />
        </g>
        <g
           id="g1250-0-1-2"
           transform="matrix(0.02724981,0,0,-0.02724981,-283.54864,155.62982)">
          <path
             d="m 0,0 c -9.923,2.979 -18.812,6.176 -26.418,9.501 l 0.626,1.434 C -18.242,7.635 -9.414,4.46 0.45,1.499 Z"
             style="fill:#ffffff;fill-opacity:1;fill-rule:nonzero;stroke:none"
             id="path1252-1-9-8"
             inkscape:connector-curvature="0" />
        </g>
        <g
           id="g1254-8-3-5"
           transform="matrix(0.02724981,0,0,-0.02724981,-280.49015,155.83201)">
          <path
             d="M 0,0 C -10.677,0 -21.261,0.416 -31.53,1.239 L -31.405,2.8 C -19.68,1.859 -7.54,1.454 4.679,1.592 48.186,2.089 88.668,9.404 115.745,21.662 l 0.645,-1.427 C 89.123,7.892 48.413,0.526 4.697,0.027 3.13,0.01 1.563,0 0,0"
             style="fill:#ffffff;fill-opacity:1;fill-rule:nonzero;stroke:none"
             id="path1256-4-8-2"
             inkscape:connector-curvature="0" />
        </g>
        <g
           id="g1258-0-4-6"
           transform="matrix(0.02724981,0,0,-0.02724981,-277.41833,153.54088)">
          <path
             d="m 0,0 c -27.286,11.012 -67.079,17.043 -109.178,16.572 -11.698,-0.134 -23.326,-0.765 -34.561,-1.88 l -0.154,1.558 c 11.28,1.118 22.954,1.753 34.697,1.887 42.308,0.489 82.311,-5.6 109.781,-16.686 z"
             style="fill:#ffffff;fill-opacity:1;fill-rule:nonzero;stroke:none"
             id="path1260-3-3-6"
             inkscape:connector-curvature="0" />
        </g>
        <g
           id="g1262-4-7-6"
           transform="matrix(0.02724981,0,0,-0.02724981,-282.14599,155.4234)">
          <path
             d="m 0,0 -1.506,-0.393 c -1.663,6.361 -3.855,15.613 -5.576,23.58 -9.658,44.623 -12.885,87.412 -9.108,119.165 0.214,1.806 0.449,3.576 0.721,5.303 0.535,0.157 1.078,0.286 1.627,0.393 -0.257,-1.685 -0.499,-3.398 -0.706,-5.153 C -18.46,111.249 -15.262,68.324 -5.561,23.515 -3.848,15.569 -1.663,6.339 0,0"
             style="fill:#ffffff;fill-opacity:1;fill-rule:nonzero;stroke:none"
             id="path1264-6-1-8"
             inkscape:connector-curvature="0" />
        </g>
        <g
           id="g1266-4-2-3"
           transform="matrix(0.02724981,0,0,-0.02724981,-279.50549,157.90791)">
          <path
             d="M 0,0 -1.511,0.355 C 1.721,14.074 3.168,32.03 2.672,52.282 2.448,61.409 1.933,71.17 1.292,78.392 l 1.547,0.136 C 3.482,71.276 4,61.479 4.225,52.32 4.724,31.937 3.263,13.846 0,0"
             style="fill:#ffffff;fill-opacity:1;fill-rule:nonzero;stroke:none"
             id="path1268-9-0-1"
             inkscape:connector-curvature="0" />
        </g>
      </g>
      <g
         style="fill:#eab331;fill-opacity:1"
         inkscape:export-ydpi="256"
         inkscape:export-xdpi="256"
         transform="matrix(0.05552264,0,0,-0.05552264,-271.50115,153.77027)"
         id="g1382-1-9-1-9-8-5-4-5-1-7-0-7-1-5-6">
        <path
           inkscape:connector-curvature="0"
           id="path1384-1-2-1-2-9-2-5-2-7-5-2-7-0-1-1"
           style="fill:#eab331;fill-opacity:1;fill-rule:nonzero;stroke:none"
           d="m 0,0 c 1.159,0.499 2.147,1.178 2.966,2.037 0.819,0.859 1.448,1.877 1.887,3.055 0.439,1.179 0.659,2.427 0.659,3.745 0,1.318 -0.22,2.566 -0.659,3.745 C 4.414,13.76 3.785,14.779 2.966,15.637 2.147,16.496 1.159,17.186 0,17.704 c -1.158,0.52 -2.476,0.779 -3.955,0.779 -1.477,0 -2.795,-0.259 -3.954,-0.779 -1.158,-0.518 -2.147,-1.208 -2.965,-2.067 -0.819,-0.858 -1.448,-1.877 -1.888,-3.055 -0.439,-1.179 -0.659,-2.427 -0.659,-3.745 0,-1.318 0.22,-2.566 0.659,-3.745 0.44,-1.178 1.069,-2.196 1.888,-3.055 0.818,-0.859 1.807,-1.538 2.965,-2.037 1.159,-0.499 2.477,-0.749 3.954,-0.749 1.479,0 2.797,0.25 3.955,0.749 m -11.174,-7.58 c -2.217,0.919 -4.144,2.167 -5.782,3.745 -1.638,1.578 -2.925,3.455 -3.864,5.632 -0.939,2.177 -1.409,4.523 -1.409,7.04 0,2.517 0.47,4.853 1.409,7.01 0.939,2.157 2.226,4.045 3.864,5.663 1.638,1.617 3.565,2.885 5.782,3.803 2.217,0.919 4.624,1.378 7.219,1.378 2.597,0 5.003,-0.459 7.221,-1.378 2.216,-0.918 4.144,-2.186 5.781,-3.803 1.638,-1.618 2.926,-3.506 3.865,-5.663 0.939,-2.157 1.408,-4.493 1.408,-7.01 0,-2.517 -0.469,-4.863 -1.408,-7.04 C 11.973,-0.38 10.685,-2.257 9.047,-3.835 7.41,-5.413 5.482,-6.661 3.266,-7.58 1.048,-8.499 -1.358,-8.958 -3.955,-8.958 c -2.595,0 -5.002,0.459 -7.219,1.378" />
      </g>
      <g
         style="fill:#eab331;fill-opacity:1"
         inkscape:export-ydpi="256"
         inkscape:export-xdpi="256"
         transform="matrix(0.05552264,0,0,-0.05552264,-268.73022,152.35483)"
         id="g1386-0-5-0-4-7-7-80-7-9-2-5-2-1-3-5">
        <path
           inkscape:connector-curvature="0"
           id="path1388-6-6-9-2-3-4-87-8-6-9-6-0-7-3-0"
           style="fill:#eab331;fill-opacity:1;fill-rule:nonzero;stroke:none"
           d="m 0,0 v -31.994 c -1.198,-0.4 -2.356,-0.749 -3.475,-1.049 -1.118,-0.3 -2.247,-0.559 -3.385,-0.779 -1.139,-0.219 -2.327,-0.379 -3.565,-0.48 -1.238,-0.099 -2.576,-0.149 -4.014,-0.149 -2.157,0 -4.164,0.229 -6.021,0.689 -1.858,0.459 -3.476,1.228 -4.853,2.307 -1.379,1.078 -2.457,2.496 -3.236,4.254 -0.779,1.757 -1.169,3.954 -1.169,6.59 V 0 h 8.388 v -18.214 c 0,-3.076 0.519,-5.182 1.559,-6.321 1.038,-1.139 2.735,-1.707 5.092,-1.707 0.919,0 1.887,0.059 2.906,0.18 1.018,0.119 2.147,0.339 3.385,0.658 V 0 Z" />
      </g>
      <g
         style="fill:#eab331;fill-opacity:1"
         inkscape:export-ydpi="256"
         inkscape:export-xdpi="256"
         transform="matrix(0.05552264,0,0,-0.05552264,-267.96515,152.34657)"
         id="g1390-5-6-5-4-1-0-7-7-6-3-0-3-2-3-3">
        <path
           inkscape:connector-curvature="0"
           id="path1392-6-1-7-5-8-3-46-5-0-2-5-9-8-2-1"
           style="fill:#eab331;fill-opacity:1;fill-rule:nonzero;stroke:none"
           d="M 0,0 C 1.398,0.221 2.766,0.4 4.104,0.539 5.442,0.68 6.71,0.8 7.909,0.899 c 1.198,0.1 2.257,0.15 3.175,0.15 2.157,0 4.185,-0.2 6.082,-0.599 1.897,-0.399 3.545,-1.119 4.942,-2.157 1.398,-1.038 2.507,-2.456 3.326,-4.254 0.819,-1.798 1.228,-4.074 1.228,-6.83 v -21.09 h -8.388 v 18.693 c 0,3.076 -0.639,5.182 -1.918,6.322 -1.277,1.137 -3.155,1.707 -5.631,1.707 -0.919,0 -1.917,-0.06 -2.996,-0.18 C 6.65,-7.459 5.512,-7.618 4.314,-7.818 V -33.881 H -4.074 V -0.688 C -2.756,-0.448 -1.398,-0.219 0,0" />
      </g>
      <g
         style="fill:#eab331;fill-opacity:1"
         inkscape:export-ydpi="256"
         inkscape:export-xdpi="256"
         transform="matrix(0.05552264,0,0,-0.05552264,-264.9081,153.77027)"
         id="g1394-1-1-9-8-2-62-6-2-7-4-1-5-1-1-7">
        <path
           inkscape:connector-curvature="0"
           id="path1396-1-1-1-2-1-0-9-7-1-4-7-6-9-1-0"
           style="fill:#eab331;fill-opacity:1;fill-rule:nonzero;stroke:none"
           d="m 0,0 c 1.158,0.499 2.147,1.178 2.966,2.037 0.819,0.859 1.448,1.877 1.887,3.055 0.439,1.179 0.659,2.427 0.659,3.745 0,1.318 -0.22,2.566 -0.659,3.745 C 4.414,13.76 3.785,14.779 2.966,15.637 2.147,16.496 1.158,17.186 0,17.704 c -1.158,0.52 -2.477,0.779 -3.954,0.779 -1.479,0 -2.796,-0.259 -3.955,-0.779 -1.158,-0.518 -2.147,-1.208 -2.966,-2.067 -0.818,-0.858 -1.447,-1.877 -1.887,-3.055 -0.439,-1.179 -0.659,-2.427 -0.659,-3.745 0,-1.318 0.22,-2.566 0.659,-3.745 0.44,-1.178 1.069,-2.196 1.887,-3.055 0.819,-0.859 1.808,-1.538 2.966,-2.037 1.159,-0.499 2.476,-0.749 3.955,-0.749 1.477,0 2.796,0.25 3.954,0.749 m -11.174,-7.58 c -2.217,0.919 -4.144,2.167 -5.782,3.745 -1.638,1.578 -2.926,3.455 -3.864,5.632 -0.939,2.177 -1.409,4.523 -1.409,7.04 0,2.517 0.47,4.853 1.409,7.01 0.938,2.157 2.226,4.045 3.864,5.663 1.638,1.617 3.565,2.885 5.782,3.803 2.217,0.919 4.623,1.378 7.22,1.378 2.596,0 5.002,-0.459 7.22,-1.378 2.216,-0.918 4.144,-2.186 5.781,-3.803 1.638,-1.618 2.926,-3.506 3.865,-5.663 0.939,-2.157 1.408,-4.493 1.408,-7.01 0,-2.517 -0.469,-4.863 -1.408,-7.04 C 11.973,-0.38 10.685,-2.257 9.047,-3.835 7.41,-5.413 5.482,-6.661 3.266,-7.58 c -2.218,-0.919 -4.624,-1.378 -7.22,-1.378 -2.597,0 -5.003,0.459 -7.22,1.378" />
      </g>
      <g
         style="fill:#eab331;fill-opacity:1"
         inkscape:export-ydpi="256"
         inkscape:export-xdpi="256"
         transform="matrix(0.05552264,0,0,-0.05552264,-262.13709,152.35483)"
         id="g1398-7-8-3-6-1-4-18-7-4-3-3-9-7-9-3">
        <path
           inkscape:connector-curvature="0"
           id="path1400-1-7-5-6-8-0-5-2-2-8-2-0-3-0-9"
           style="fill:#eab331;fill-opacity:1;fill-rule:nonzero;stroke:none"
           d="m 0,0 v -31.994 c -1.198,-0.4 -2.357,-0.749 -3.475,-1.049 -1.118,-0.3 -2.247,-0.559 -3.385,-0.779 -1.139,-0.219 -2.327,-0.379 -3.565,-0.48 -1.238,-0.099 -2.576,-0.149 -4.014,-0.149 -2.157,0 -4.165,0.229 -6.022,0.689 -1.857,0.459 -3.475,1.228 -4.853,2.307 -1.378,1.078 -2.457,2.496 -3.235,4.254 -0.779,1.757 -1.169,3.954 -1.169,6.59 V 0 h 8.388 v -18.214 c 0,-3.076 0.519,-5.182 1.558,-6.321 1.039,-1.139 2.736,-1.707 5.093,-1.707 0.919,0 1.887,0.059 2.906,0.18 1.018,0.119 2.147,0.339 3.385,0.658 V 0 Z" />
      </g>
      <g
         style="fill:#eab331;fill-opacity:1"
         inkscape:export-ydpi="256"
         inkscape:export-xdpi="256"
         transform="matrix(0.05552264,0,0,-0.05552264,-260.12636,154.2553)"
         id="g1402-9-0-3-5-5-2-1-1-2-6-8-2-5-8-3">
        <path
           inkscape:connector-curvature="0"
           id="path1404-7-5-3-1-7-76-9-2-4-8-9-0-1-3-8"
           style="fill:#eab331;fill-opacity:1;fill-rule:nonzero;stroke:none"
           d="m 0,0 h -29.927 v 5.652 c 2.711,5.978 6.213,11.353 10.409,15.978 1.65,1.819 3.389,3.503 5.208,5.048 h -15.617 v 7.773 H 0 v -7.483 c -5.478,-2.525 -10.417,-6.189 -14.682,-10.89 -2.288,-2.521 -4.339,-5.301 -6.136,-8.306 L 0,7.772 Z" />
      </g>
      <path
         inkscape:export-ydpi="256"
         inkscape:export-xdpi="256"
         inkscape:connector-curvature="0"
         id="path1408-9-6-1-6-5-2-4-7-9-9-6-3-1-3-0"
         style="fill:#eab331;fill-opacity:1;fill-rule:nonzero;stroke:none;stroke-width:0.05552264"
         d="m -272.76895,154.2244 h -0.4976 c -0.13642,-0.2528 -0.31154,-0.47829 -0.52235,-0.6731 -0.18811,-0.17392 -0.39971,-0.31792 -0.63069,-0.42957 v 1.10606 h -0.44679 v -2.70676 h 0.44679 v 1.10564 c 0.23098,-0.11133 0.44258,-0.25534 0.63069,-0.42919 0.21204,-0.19565 0.3876,-0.42241 0.52446,-0.67645 h 0.49715 c -0.17045,0.38379 -0.41192,0.72182 -0.71885,1.00482 -0.14153,0.13102 -0.29477,0.2473 -0.45767,0.34858 0.1629,0.10114 0.31614,0.21745 0.45767,0.34851 0.3061,0.28215 0.54673,0.61891 0.71719,1.00146" />
      <g
         id="text4198-2-1-9-5-6-1-3-9-1-0-1-4"
         style="font-variant:normal;font-weight:300;font-stretch:normal;font-size:2.42563367px;writing-mode:lr-tb;fill:#009cdf;fill-opacity:1;fill-rule:nonzero;stroke:none;stroke-width:0.0556601"
         aria-label="Travel">
        <path
           inkscape:connector-curvature="0"
           id="path4219"
           style="font-style:normal;font-variant:normal;font-weight:normal;font-stretch:normal;font-family:'29LT Bukra';-inkscape-font-specification:'29LT Bukra';fill:#009cdf;fill-opacity:1;stroke-width:0.0556601"
           d="m -266.51667,155.13574 h -0.72011 v -0.17293 h 1.62025 v 0.17293 h -0.72011 v 1.85831 h -0.18003 z" />
        <path
           inkscape:connector-curvature="0"
           id="path4221"
           style="font-style:normal;font-variant:normal;font-weight:normal;font-stretch:normal;font-family:'29LT Bukra';-inkscape-font-specification:'29LT Bukra';fill:#009cdf;fill-opacity:1;stroke-width:0.0556601"
           d="m -265.10487,155.64502 h 0.24754 v 0.167 H -265.08 q -0.0758,-10e-4 -0.16344,0.013 -0.0876,0.0142 -0.12081,0.0261 v 1.14294 h -0.17174 v -1.28152 q 0.25228,-0.0675 0.43112,-0.0675 z" />
        <path
           inkscape:connector-curvature="0"
           id="path4223"
           style="font-style:normal;font-variant:normal;font-weight:normal;font-stretch:normal;font-family:'29LT Bukra';-inkscape-font-specification:'29LT Bukra';fill:#009cdf;fill-opacity:1;stroke-width:0.0556601"
           d="m -264.53044,156.58898 q 0,0.25939 0.40743,0.25939 0.20727,0 0.36124,-0.058 v -0.44888 q -0.13147,-0.0273 -0.26057,-0.0273 -0.24753,0 -0.36597,0.0533 -0.14213,0.064 -0.14213,0.22148 z m -0.18477,0.005 q 0,-0.24043 0.18714,-0.34466 0.18713,-0.10422 0.49507,-0.10422 0.10778,0 0.27123,0.0213 v -0.0142 q 0,-0.19661 -0.0924,-0.2807 -0.0924,-0.0841 -0.28307,-0.0829 -0.09,0 -0.18595,0.0237 -0.0959,0.0249 -0.14687,0.0462 -0.0509,0.0213 -0.14331,0.0734 l 0.008,-0.19424 q 0.23688,-0.11963 0.49271,-0.11963 0.25583,-0.001 0.38966,0.12199 0.13384,0.12318 0.13384,0.39085 v 0.78762 q -0.24043,0.0995 -0.52232,0.0995 -0.4098,0 -0.55192,-0.22266 -0.0521,-0.0829 -0.0521,-0.20135 z" />
        <path
           inkscape:connector-curvature="0"
           id="path4225"
           style="font-style:normal;font-variant:normal;font-weight:normal;font-stretch:normal;font-family:'29LT Bukra';-inkscape-font-specification:'29LT Bukra';fill:#009cdf;fill-opacity:1;stroke-width:0.0556601"
           d="m -262.79175,156.99405 -0.57325,-1.34903 h 0.19661 l 0.45599,1.09438 0.45599,-1.09438 h 0.19661 l -0.57206,1.34903 z" />
        <path
           inkscape:connector-curvature="0"
           id="path4227"
           style="font-style:normal;font-variant:normal;font-weight:normal;font-stretch:normal;font-family:'29LT Bukra';-inkscape-font-specification:'29LT Bukra';fill:#009cdf;fill-opacity:1;stroke-width:0.0556601"
           d="m -261.27692,155.78833 q -0.10185,0.001 -0.18832,0.0343 -0.0865,0.0332 -0.14686,0.0924 -0.0604,0.0592 -0.0995,0.14095 -0.0391,0.0817 -0.0486,0.13976 h 0.94633 q -0.007,-0.0675 -0.045,-0.14924 -0.0379,-0.0817 -0.0971,-0.13976 -0.0592,-0.058 -0.13976,-0.0888 -0.0805,-0.0308 -0.18121,-0.0296 z m 0.0225,1.2294 q -0.30558,0 -0.50337,-0.19897 -0.19779,-0.19898 -0.19779,-0.49982 0,-0.30083 0.19897,-0.501 0.19898,-0.20016 0.48679,-0.20016 0.28899,0 0.46783,0.19424 0.18003,0.19424 0.18477,0.55074 h -1.15478 q 0.002,0.0805 0.0391,0.17648 0.0367,0.0959 0.10304,0.16344 0.14332,0.14569 0.37901,0.14569 0.23569,0 0.46191,-0.13384 l 0.0817,0.15752 q -0.12555,0.0722 -0.25346,0.10897 -0.12792,0.0367 -0.29373,0.0367 z" />
        <path
           inkscape:connector-curvature="0"
           id="path4229"
           style="font-style:normal;font-variant:normal;font-weight:normal;font-stretch:normal;font-family:'29LT Bukra';-inkscape-font-specification:'29LT Bukra';fill:#009cdf;fill-opacity:1;stroke-width:0.0556601"
           d="m -260.31045,156.99405 v -2.03124 h 0.17173 v 2.03124 z" />
      </g>
    </g>
  </g>
</svg>
